# xmcd CD database file
#
# Track frame offsets:
#	150
#	16336
#	32189
#	49735
#	67488
#	80713
#	95315
#	113762
#	131921
#	148263
#	165833
#	183328
#	199301
#
# Disc length: 2914 seconds
#
# Revision: 0
# Processed by: cddbd v1.5.1PL2 Copyright (c) Steve Scherf et al.
# Submitted via: CDex 1.51
#
DISCID=bd0b600d
DTITLE=MTK2 - ぱらりろどぉ〜ん
DYEAR=2005
DGENRE=Game
TTITLE0=ファイナルファンタジーIV メインテーマ
TTITLE1=想いは遠くマナの木に寄せて 〜Theme of Mana〜
TTITLE2=カエルのテーマ
TTITLE3=星降る渓谷
TTITLE4=反乱軍のテーマ
TTITLE5=天使の恐れ
TTITLE6=涙を拭いて
TTITLE7=伝説は始まる
TTITLE8=果てしなき戦場
TTITLE9=Meridian Child
TTITLE10=オープニングタイトル
TTITLE11=ティナのテーマ
TTITLE12=ファイナルファンタジー
EXTD=YEAR: 2005
EXTT0=
EXTT1=
EXTT2=
EXTT3=
EXTT4=
EXTT5=
EXTT6=
EXTT7=
EXTT8=
EXTT9=
EXTT10=
EXTT11=
EXTT12=
PLAYORDER=
